<svg width="1200" height="800" viewBox="0 0 1200 800" fill="none" xmlns="http://www.w3.org/2000/svg">
  <defs>
    <linearGradient id="bg" x1="0" y1="0" x2="1" y2="1">
      <stop offset="0" stop-color="#0B4F9C"/>
      <stop offset="1" stop-color="#083A74"/>
    </linearGradient>
    <linearGradient id="gold" x1="0" y1="0" x2="1" y2="1">
      <stop offset="0" stop-color="#F4C430"/>
      <stop offset="1" stop-color="#F7D76E"/>
    </linearGradient>
  </defs>
  <rect width="1200" height="800" rx="36" fill="url(#bg)"/>
  <circle cx="980" cy="190" r="170" fill="url(#gold)" fill-opacity="0.9"/>
  <circle cx="110" cy="710" r="180" fill="#1B65BC" fill-opacity="0.65"/>
  <rect x="160" y="150" width="520" height="480" rx="24" fill="#ffffff" fill-opacity="0.93"/>
  <rect x="210" y="220" width="240" height="20" rx="10" fill="#DCE9F9"/>
  <rect x="210" y="260" width="380" height="14" rx="7" fill="#C5DCF6"/>
  <rect x="210" y="292" width="300" height="14" rx="7" fill="#C5DCF6"/>
  <rect x="210" y="338" width="410" height="190" rx="16" fill="#EEF5FF"/>
  <rect x="232" y="456" width="78" height="50" rx="8" fill="#0B4F9C" fill-opacity="0.9"/>
  <rect x="328" y="430" width="78" height="76" rx="8" fill="#1E63AF"/>
  <rect x="424" y="390" width="78" height="116" rx="8" fill="#2F73BC"/>
  <rect x="520" y="350" width="78" height="156" rx="8" fill="#F4C430"/>
  <rect x="735" y="300" width="315" height="220" rx="20" fill="#FFFFFF" fill-opacity="0.2" stroke="#FFFFFF" stroke-opacity="0.35"/>
  <path d="M770 458C820 402 868 360 924 360C980 360 1018 388 1056 440" stroke="#F4C430" stroke-width="14" stroke-linecap="round"/>
  <circle cx="820" cy="420" r="18" fill="#F4C430"/>
  <circle cx="934" cy="372" r="18" fill="#F4C430"/>
</svg>
